#!OML:ASF F:\VICON\USERDATA\INSTALL\rory3\rory3.ASF
:FULLY-SPECIFIED
:DEGREES
28
root 0.6760985134506635 17.669737484899414 -5.840183183279514 -2.8050896294408947 0.1563880862325736 -2.360676352595548
lfemur -14.4561202257376 -3.013684816268839 -21.677047881512532
ltibia 19.30084843166044
lfoot -12.206335944353416 0.09097372796166381
ltoes -4.8776209008492035
rfemur -8.559202746560983 -1.1441713986208621 25.26226516088035
rtibia 63.77487564539282
rfoot 8.453637953229775 -6.837449555648612
rtoes 10.311008970416967
lowerback 11.413627509893528 1.0961772363298916 1.5238002938227817
upperback -0.47227977596083526 1.8862947327812787 1.2851212663704878
thorax -5.6952658592261205 0.9375562880989463 -0.11858760680651836
lowerneck -16.734130903484438 -3.524760574658337 -1.893033144380058
upperneck 20.729864538258227 -4.726530159590426 0.9263149939788083
head 9.341476646926298 -2.1944352710844774 0.07651400600416619
lclavicle -2.0276703899086487e-15 -7.125152048581464e-16
lhumerus -30.613178524711426 5.94889501768487 76.17967443304067
lradius 23.6025726559001
lwrist 7.84271188199794
lhand -30.567676228719858 17.619641356444184
lfingers 7.12502
lthumb -3.6038847837238377 47.924351118953055
rclavicle -2.0287615007480176e-15 -7.132047317993684e-16
rhumerus -28.033591092909273 -19.502174763665067 -78.72130470604105
rradius 29.093644515036242
rwrist 3.9799414999147977
rhand -17.926154100692404 21.765386644875054
rfingers 7.12502
rthumb 8.696769674619206 -7.262801411175285
29
root 0.6645359922132983 17.693405183009144 -5.208247602926992 -3.146686860205491 0.38954633903381275 -1.8885445454161012
lfemur -11.707218040288033 -3.009955356384261 -22.726063166565144
ltibia 21.447376696889222
lfoot -12.49792426070281 0.09811618011926404
ltoes -4.814360150617
rfemur -14.085593134622222 -2.69544745832411 24.494503616893265
rtibia 69.93619261470815
rfoot 3.4628014634906368 -10.736181534376046
rtoes 10.252875527341025
lowerback 11.815985517479191 0.7750715900115007 0.8536727615907859
upperback -0.3720562033665137 1.287271177618221 1.3772486021060246
thorax -5.708962214723893 0.6599473027103151 0.3848304884437852
lowerneck -16.568811400975243 -3.4528037475333897 -1.9646560567609677
upperneck 20.735949616641424 -4.573854456846477 0.828773066348904
head 9.328442215720683 -2.148625402314867 0.08295856584034644
lclavicle -2.0273992023480267e-15 -7.123408077646755e-16
lhumerus -30.79488641071984 6.134841137809018 76.52304585807536
lradius 24.069960452798682
lwrist 7.005900192552093
lhand -30.495182617378546 18.777720435082017
lfingers 7.12502
lthumb -3.3951802275319873 49.209862818709595
rclavicle -2.0296100864641983e-15 -7.137465120589281e-16
rhumerus -29.37327776163063 -21.28436191999027 -77.83312311395342
rradius 27.52823683142196
rwrist 5.5683399989238485
rhand -17.539813460737477 21.363423606503087
rfingers 7.12502
rthumb 9.02471820644428 -7.887140701643561
30
root 0.6532616965681435 17.76940370533827 -4.271676986624955 -3.249682491744467 -0.019817017624423283 -2.4330463082916154
lfemur -9.564324323580536 -2.492206491739773 -22.62424728628477
ltibia 22.77304039820523
lfoot -10.455362510531055 -0.9285733810472196
ltoes -4.7436958854398705
rfemur -18.947698290631784 -3.2286998353253313 24.88183202194132
rtibia 71.79971386013473
rfoot -1.0175754390360385 -11.3031368167448
rtoes 10.206651795169934
lowerback 12.150931790305297 0.6701055882407956 0.8876255316530735
upperback -0.2433308992236867 1.1456945275009267 1.6696473302039803
thorax -5.721562610593834 0.5985885930326234 0.6189412690793947
lowerneck -16.530777584334494 -3.421411681628812 -2.020355288213066
upperneck 20.864987461765384 -4.495572387625906 0.8101142031599724
head 9.367450756438929 -2.121172888618012 0.09364657561090098
lclavicle -2.02799293008855e-15 -7.127233226613843e-16
lhumerus -31.27749921555109 6.264053657876845 77.05679489946914
lradius 24.660795173315336
lwrist 6.024354182680213
lhand -29.71154630164672 20.347398028256848
lfingers 7.12502
lthumb -2.6759508160079295 50.66190723313011
rclavicle -2.02964314332071e-15 -7.137675610505377e-16
rhumerus -30.727384460604235 -22.322995729337805 -77.09118542988838
rradius 26.637093455041704
rwrist 5.78358580336979
rhand -17.06200481086104 20.120691729398235
rfingers 7.12502
rthumb 9.040381119739449 -8.719001068589735
31
root 0.6456825406279052 17.760994226251665 -3.822707106070226 -3.1702020512448503 0.022758152195198555 -2.0519129414185038
lfemur -7.33212907409857 -1.951235485873959 -23.355311282142026
ltibia 24.036411947160786
lfoot -9.466856921384304 -2.2755778981942427
ltoes -6.850467875579319
rfemur -22.7536863820743 -4.126033209263243 24.66571638240799
rtibia 69.97276819130225
rfoot -4.032857153013859 -9.533878970059282
rtoes 11.248715325933002
lowerback 12.476063739902198 0.4296430247909234 0.3765423790090016
upperback -0.06262173619457186 0.7223842790550765 1.785661044238683
thorax -5.707529443645789 0.37697041804278225 1.0207787265106214
lowerneck -16.565157577971213 -3.391965410949708 -2.1378649426779806
upperneck 20.861379823558007 -4.466440866285538 1.0425320719150144
head 9.357139686779247 -2.0905471445180797 0.18238666188278838
lclavicle -2.0263778767992683e-15 -7.116955669844154e-16
lhumerus -31.593210810776025 5.96918998742896 77.84498792779428
lradius 25.58524687393967
lwrist 5.942086199834873
lhand -29.15972657024755 20.022168635777014
lfingers 7.12502
lthumb -2.3518868153959045 50.25393280563749
rclavicle -2.0297712557588246e-15 -7.138495528344421e-16
rhumerus -31.642964385650465 -21.900597216250635 -76.92302702314365
rradius 26.632471361374463
rwrist 5.221625877578479
rhand -17.47317969716874 21.3089635937915
rfingers 7.12502
rthumb 8.814688803303385 -7.20009674016313
32
root 0.650479292065595 17.759466961299545 -2.718277104340835 -2.339197989048116 0.17811983253508135 -2.798972756268606
lfemur -5.306622523623484 -1.4127733507213551 -22.86969434945821
ltibia 24.065826200020965
lfoot -8.222444983736539 -3.5777904783152
ltoes -8.324469794311998
rfemur -25.32733790713546 -4.42208263041383 25.51787758489562
rtibia 63.918537653539325
rfoot -6.043513206180833 -8.820948893373892
rtoes 7.242769312290129
lowerback 12.597335710895353 0.1931381264045163 1.0417692065112745
upperback -0.025181540838716765 0.4411663969988467 1.9757629686680467
thorax -5.673874364477278 0.2622105619337009 1.1201193044213515
lowerneck -16.523651289704716 -3.3968936323957406 -2.2316182648422607
upperneck 20.84206809754156 -4.495431238891556 1.3466892225516907
head 9.328908060573815 -2.0882478960758126 0.27888065973627796
lclavicle -2.026158460057889e-15 -7.115566262056147e-16
lhumerus -31.315392689665423 4.675634434776134 78.97488367815352
lradius 26.841672613478192
lwrist 6.301911221592938
lhand -29.189620454732726 19.839823334496877
lfingers 7.12502
lthumb -2.4793445996485515 50.03795071906112
rclavicle -2.030306738990638e-15 -7.141915127721238e-16
rhumerus -32.1070030993242 -20.704090686055174 -77.40480991907339
rradius 27.123212531060624
rwrist 4.324450762659208
rhand -17.50553921453738 21.57238139403726
rfingers 7.12502
rthumb 8.772464671873097 -7.571342500595584
33
root 0.6578603829305651 17.80198336028314 -1.5286177033951827 -1.9167169471747618 0.2892408662744934 -3.0919961710508215
lfemur -3.1715169178287814 -0.9193969763179435 -22.955025545017417
ltibia 22.706483046414057
lfoot -5.314460707982193 -4.880156754667338
ltoes -9.71842716347605
rfemur -26.591146413355325 -4.267088504258596 25.799791680033604
rtibia 54.08137736440983
rfoot -5.511162161451096 -9.870912502093034
rtoes 3.4749698415211148
lowerback 12.633620837394396 0.015492101488423532 1.3166810525441897
upperback 0.051336880139384616 0.2830161912807331 2.079264039548591
thorax -5.64016911726284 0.16094973853391023 1.2083824446429472
lowerneck -16.48767511972836 -3.3423139207646817 -2.2634922375039572
upperneck 20.92671290619787 -4.427006357830184 1.442469857517101
head 9.3561265975318 -2.0569262119039586 0.293678514725228
lclavicle -2.0258041660226394e-15 -7.113323752967765e-16
lhumerus -30.98770407621955 3.9389585009212733 79.82880974702408
lradius 27.795188913256965
lwrist 6.7125583805721964
lhand -29.181003127875616 21.014486726436157
lfingers 7.12502
lthumb -2.484432765013925 51.414523358719485
rclavicle -2.0294165974806287e-15 -7.136230760264866e-16
rhumerus -32.42231956551567 -19.853021133168994 -77.83241092625386
rradius 27.527390180033308
rwrist 3.6957399005190665
rhand -17.61326637658741 21.959669544493902
rfingers 7.12502
rthumb 8.739786320572058 -7.625735755681253
34
root 0.6948366821429626 17.86605046421785 -0.2422374503277691 -1.0215248682536768 1.3451385960760862 -2.756955896146212
lfemur -0.8434724561407689 -1.0099418036013865 -23.58752227663916
ltibia 20.009410383171016
lfoot -1.0546017281958031 -6.890848629269769
ltoes -11.508189423661133
rfemur -26.727752614063178 -4.430765037459581 25.433642933418586
rtibia 41.0082645564803
rfoot -3.334904425149918 -11.903167452255142
rtoes 1.7780963162269983
lowerback 12.108643990309211 -0.41121069873239724 1.5291942153198381
upperback -0.01777952068023296 -0.22519797169027705 2.0375226522542933
thorax -5.3431877012978335 -0.09994046466704082 1.2391277251219726
lowerneck -16.450911267993693 -3.2794057041872184 -2.3177537573428353
upperneck 21.16135527243663 -4.288599519612505 1.4729675085699951
head 9.424142062209057 -2.0117745807576757 0.32738406027613903
lclavicle -2.023869720941454e-15 -7.100964739682106e-16
lhumerus -30.845547282413268 3.639313351373372 80.41336949195127
lradius 28.90590745540065
lwrist 7.034266745508606
lhand -28.695190480956832 19.980771373985917
lfingers 7.12502
lthumb -2.1374422424499584 50.58272811191548
rclavicle -2.0285533632049864e-15 -7.130718826708256e-16
rhumerus -33.167471941007875 -19.483990685563864 -77.86188639997928
rradius 27.83479784633976
rwrist 3.1481732865192984
rhand -17.38904586206975 21.780735016880573
rfingers 7.12502
rthumb 8.71422282984995 -8.367171479990757
